<?xml version="1.0" encoding="UTF-8" standalone="no"?><!DOCTYPE svg PUBLIC "-//W3C//DTD SVG 1.1//EN" "http://www.w3.org/Graphics/SVG/1.1/DTD/svg11.dtd"><svg width="100%" height="100%" viewBox="0 0 2447 500" version="1.1" xmlns="http://www.w3.org/2000/svg" xmlns:xlink="http://www.w3.org/1999/xlink" xml:space="preserve" xmlns:serif="http://www.serif.com/" style="fill-rule:evenodd;clip-rule:evenodd;stroke-linejoin:round;stroke-miterlimit:2;"><rect id="Prancheta4" x="-0" y="-0" width="2450.787" height="499.606" style="fill:none;"/><clipPath id="_clip1"><rect x="-0" y="-0" width="2450.787" height="499.606"/></clipPath><g clip-path="url(#_clip1)"><g><g><path d="M372.131,240.427c1.273,6.8 1.938,13.813 1.938,20.98c0,62.657 -50.869,113.526 -113.526,113.526c-62.657,0 -113.526,-50.869 -113.526,-113.526c0,-7.167 0.666,-14.18 1.938,-20.98l11.523,-65.348l43.416,-0l56.649,76.613l0,-0.013l56.639,-76.6l43.426,-0l11.523,65.348Zm-111.588,90.268c38.935,0 70.545,-31.61 70.545,-70.545c0,-4.454 -0.414,-8.811 -1.204,-13.037l-4.131,-23.426l-65.215,86.699l-65.207,-86.688l-4.129,23.416c-0.791,4.225 -1.204,8.583 -1.204,13.037c0,38.935 31.61,70.545 70.545,70.545Z" style="fill:#d4af37;"/><path d="M162.68,162.588l6.646,-37.694l43.426,0l-6.488,36.797c-0.54,0.295 -1.077,0.594 -1.611,0.897l-41.973,0Z" style="fill:#d4af37;"/><path d="M351.759,124.894l6.646,37.694l-41.973,0c-0.534,-0.303 -1.072,-0.602 -1.611,-0.897l-6.488,-36.797l43.426,0Z" style="fill:#d4af37;"/></g><g><path d="M463.237,176.256l127.189,121.166l2.277,24.147l-127.186,-120.966l-2.28,-24.347Zm0.885,128.37l0,14.153l-16.545,0l0,-1.993l3.787,0c3.322,0 6.179,-1.196 8.571,-3.588c2.392,-2.392 3.588,-5.249 3.588,-8.571l0.598,0Zm27.934,0c0,3.322 1.196,6.179 3.588,8.571c2.392,2.392 5.249,3.588 8.571,3.588l3.787,0l0,1.993l-16.545,0l0,-14.153l0.598,0Zm-28.819,-128.37l28.62,30.526l0.199,111.996l-28.532,0l0,-117.606c0,-7.423 -0.38,-13.431 -1.14,-18.024c-0.76,-4.595 -1.14,-6.893 -1.14,-6.893l1.993,0Zm128.983,2.99l0,116.808c0,4.979 0.193,9.409 0.579,13.29c0.386,3.879 0.765,6.886 1.137,9.023c0.374,2.135 0.561,3.202 0.561,3.202l-1.794,0l-28.816,-32.226l0,-110.097l28.333,0Zm15.947,0l0,1.993l-3.588,0c-3.322,0 -6.179,1.163 -8.571,3.488c-2.392,2.326 -3.654,5.216 -3.787,8.671l-0.598,0l0,-14.153l16.545,0Zm-60.426,0l16.545,0l0,14.153l-0.399,0c-0.133,-3.455 -1.362,-6.345 -3.688,-8.671c-2.326,-2.326 -5.216,-3.488 -8.671,-3.488l-3.787,0l0,-1.993Z" style="fill:#d4af37;fill-rule:nonzero;"/><path d="M687.651,196.632c10.592,0 20.216,1.435 28.872,4.304c8.658,2.867 16.117,7.012 22.375,12.433c6.26,5.419 11.058,11.97 14.392,19.653c3.335,7.681 5.002,16.373 5.002,26.078c0,9.624 -1.667,18.257 -5.002,25.898c-3.335,7.641 -8.132,14.172 -14.392,19.594c-6.258,5.419 -13.717,9.564 -22.375,12.433c-8.656,2.867 -18.28,4.301 -28.872,4.301c-10.513,0 -20.085,-1.434 -28.716,-4.301c-8.629,-2.87 -16.074,-7.014 -22.335,-12.433c-6.26,-5.421 -11.058,-11.953 -14.392,-19.594c-3.333,-7.641 -4.999,-16.274 -4.999,-25.898c0,-9.705 1.666,-18.398 4.999,-26.078c3.335,-7.683 8.132,-14.234 14.392,-19.653c6.26,-5.421 13.705,-9.566 22.335,-12.433c8.631,-2.87 18.204,-4.304 28.716,-4.304Zm0,116.899c8.139,0 15.207,-2.21 21.204,-6.631c5.997,-4.421 10.634,-10.702 13.913,-18.843c3.281,-8.141 4.921,-17.793 4.921,-28.956c0,-11.295 -1.64,-21.021 -4.921,-29.177c-3.279,-8.156 -7.916,-14.444 -13.913,-18.865c-5.997,-4.421 -13.065,-6.631 -21.204,-6.631c-8.006,0 -15.008,2.21 -21.005,6.631c-5.997,4.421 -10.655,10.709 -13.975,18.865c-3.32,8.156 -4.98,17.882 -4.98,29.177c0,11.163 1.66,20.815 4.98,28.956c3.32,8.141 7.978,14.422 13.975,18.843c5.997,4.421 12.998,6.631 21.005,6.631Z" style="fill:#d4af37;fill-rule:nonzero;"/><path d="M904.415,196.632l1.676,20.46l-53.664,85.236c0,0 -0.599,1.069 -1.797,3.208c-1.198,2.137 -2.369,4.747 -3.513,7.83c-1.144,3.081 -1.78,6.139 -1.909,9.172l-1.75,0l-7.752,-16.311l68.71,-109.595Zm-122.496,109.396l0,12.751l-19.64,0l0,-1.993l2.747,0c3.293,0 6.175,-0.935 8.646,-2.806c2.471,-1.873 3.946,-4.523 4.426,-7.951l3.822,0Zm8.643,2.869c-0.133,1.429 0.311,3.101 1.333,5.018c1.024,1.914 2.877,2.898 5.559,2.949l2.791,0l0,1.915l-11.969,0l1.212,-9.883l1.075,0Zm3.083,-112.264l1.629,0l6.771,19.142l-12.602,103.005l-13.019,0l17.22,-122.147Zm1.629,0l59.058,88.276l-10.876,37.63l-52.938,-80.381l4.756,-45.526Zm110.934,0l17.7,122.147l-30.52,0l-9.932,-72.672l20.958,-49.475l1.794,0Zm11.96,109.396l3.868,0c0.61,3.428 2.144,6.079 4.6,7.951c2.456,1.871 5.225,2.806 8.307,2.806l2.869,0l0,1.993l-19.644,0l0,-12.751Zm-26.175,2.869l1.152,0l1.212,9.883l-12.047,0l0,-1.915l2.869,0c2.897,-0.052 4.803,-1.028 5.718,-2.928c0.916,-1.902 1.281,-3.582 1.096,-5.039Z" style="fill:#d4af37;fill-rule:nonzero;"/><path d="M984.817,199.179l0,119.599l-28.732,0l0,-119.599l28.732,0Zm46.603,111.604l4.684,7.995l-51.686,0l0,-7.995l47.002,0Zm-6.709,-55.277l0,8.036l-40.293,0l0,-8.036l40.293,0Zm8.929,-56.327l0,7.995l-49.223,0l0,-7.995l49.223,0Zm10.636,82.987l-7.696,36.612l-34.413,0l6.17,-7.995c5.758,0 10.865,-1.165 15.321,-3.495c4.456,-2.33 8.269,-5.632 11.44,-9.907c3.171,-4.277 5.605,-9.349 7.304,-15.215l1.875,0Zm-19.566,-19.024l0,17.535l-2.071,0l0,-1.501c0,-4.439 -1.37,-8.134 -4.111,-11.085c-2.741,-2.953 -6.434,-4.469 -11.078,-4.55l0,-0.399l17.261,0Zm0,-24.652l0,17.414l-17.261,0l0,-0.399c4.645,-0.081 8.338,-1.617 11.078,-4.61c2.741,-2.994 4.111,-6.71 4.111,-11.147l0,-1.258l2.071,0Zm8.929,-31.793l0,21.135l-2.071,0l0,-1.778c0,-5.776 -1.564,-10.347 -4.691,-13.71c-3.125,-3.366 -7.587,-5.089 -13.386,-5.17l0,-0.477l20.148,0Zm0,-10.586l0,4.94l-20.908,-1.872c3.796,0 7.837,-0.365 12.125,-1.096c4.288,-0.731 7.215,-1.388 8.783,-1.972Zm-77.036,110.153l0.897,12.514l-14.679,0l0,-1.993l2.426,0c3,0 5.543,-1.023 7.628,-3.068c2.087,-2.045 3.156,-4.53 3.208,-7.453l0.52,0Zm0,-94.527l-0.52,0c-0.052,-3.056 -1.121,-5.581 -3.208,-7.575c-2.085,-1.993 -4.627,-2.99 -7.628,-2.99l-2.426,0l0,-1.993l14.679,0l-0.897,12.558Z" style="fill:#d4af37;fill-rule:nonzero;"/><path d="M1253.681,176.455l1.595,21.705l-59.23,102.594c0,0 -0.64,1.17 -1.919,3.51c-1.279,2.338 -2.552,5.19 -3.818,8.556c-1.265,3.364 -1.934,6.684 -2.009,9.96l-1.872,0l-7.874,-17.401l75.126,-128.924Zm-135.175,127.772l0,14.551l-22.126,0l0,-1.993l3.189,0c3.588,0 6.777,-1.096 9.568,-3.289c2.791,-2.193 4.452,-5.282 4.983,-9.269l4.385,0Zm8.805,3.189l0,0.997c0,2.126 0.764,4.086 2.292,5.88c1.528,1.794 3.355,2.691 5.482,2.691l3.111,0l0,1.794l-12.281,0l0,-11.362l1.395,0Zm3.333,-130.961l1.872,0l7.011,19.989l-13.455,122.334l-13.788,0l18.36,-142.323Zm1.872,0l65.153,106.998l-11.24,39.328l-59.03,-99.068l5.117,-47.257Zm122.96,0l18.958,142.323l-32.008,0l-10.116,-91.627l21.372,-50.696l1.794,0Zm12.735,127.772l4.307,0c0.664,3.987 2.371,7.076 5.12,9.269c2.751,2.193 5.895,3.289 9.431,3.289l3.189,0l0,1.993l-22.048,0l0,-14.551Zm-27.025,3.189l1.395,0l0,11.362l-12.278,0l0,-1.794l3.108,0c2.18,0 4.021,-0.897 5.522,-2.691c1.501,-1.794 2.252,-3.754 2.252,-5.88l0,-0.997Z" style="fill:#d4af37;fill-rule:nonzero;"/><path d="M1351.781,193.726l59.052,123.978l-33.659,0l-37.132,-87.357l11.739,-36.621Zm-37.502,111.953c-1.462,3.584 -1.262,6.331 0.598,8.241c1.86,1.91 3.931,2.865 6.21,2.865l1.52,0l0,1.993l-39.888,0l0,-1.993l1.595,0c2.71,0 5.526,-0.842 8.45,-2.526c2.924,-1.686 5.328,-4.546 7.213,-8.581l14.302,0Zm37.502,-111.953l0.427,23.92l-43.348,100.535l-14.735,0l46.637,-100.292c0.322,-0.808 0.949,-2.23 1.881,-4.267c0.932,-2.039 1.937,-4.342 3.015,-6.908c1.078,-2.568 2.052,-5.029 2.925,-7.382c0.872,-2.353 1.381,-4.221 1.526,-5.606l1.673,0Zm17.348,85.99l0,7.796l-50.886,0l0,-7.796l50.886,0Zm2.906,25.963l33.061,0c1.912,4.034 4.33,6.895 7.254,8.581c2.924,1.684 5.714,2.526 8.372,2.526l1.595,0l0,1.993l-58.653,0l0,-1.993l1.595,0c2.259,0 4.319,-0.955 6.179,-2.865c1.86,-1.91 2.06,-4.657 0.598,-8.241Z" style="fill:#d4af37;fill-rule:nonzero;"/><path d="M1487.348,196.632c6.113,0 12.263,0.372 18.451,1.115c6.19,0.741 11.971,1.788 17.345,3.139c5.376,1.35 9.893,2.975 13.551,4.877l0.031,31.616l-1.554,0c-2.182,-8.486 -5.347,-15.113 -9.493,-19.88c-4.144,-4.767 -8.954,-8.137 -14.43,-10.11c-5.473,-1.975 -11.41,-2.962 -17.809,-2.962c-9.292,0 -17.113,2.192 -23.465,6.575c-6.35,4.381 -11.146,10.711 -14.389,18.989c-3.243,8.276 -4.865,18.262 -4.865,29.956c0,10.996 1.461,20.505 4.382,28.526c2.921,8.021 7.227,14.202 12.916,18.544c5.691,4.342 12.618,6.513 20.78,6.513c4.211,0 8.236,-0.678 12.075,-2.034c3.839,-1.358 7.209,-3.393 10.11,-6.105c2.903,-2.714 4.961,-6.104 6.176,-10.169l0.199,-23.97c0.054,-2.606 -0.689,-4.573 -2.23,-5.902c-1.541,-1.329 -3.692,-1.993 -6.453,-1.993l-2.791,0l0,-1.753l51.241,0l0,1.753l-2.548,0c-5.899,0 -8.767,2.658 -8.606,7.973l-0.121,26.583c-2.735,3.611 -7.022,7.228 -12.863,10.851c-5.839,3.623 -12.749,6.623 -20.731,8.998c-7.98,2.375 -16.687,3.563 -26.122,3.563c-13.237,-0.052 -24.779,-2.582 -34.628,-7.59c-9.846,-5.01 -17.493,-12.167 -22.942,-21.469c-5.448,-9.302 -8.173,-20.479 -8.173,-33.531c0,-12.942 2.703,-24.043 8.11,-33.304c5.409,-9.263 13.11,-16.378 23.104,-21.347c9.996,-4.969 21.909,-7.453 35.74,-7.453Z" style="fill:#d4af37;fill-rule:nonzero;"/><path d="M1577.225,196.432l116.964,102.84l2.115,22.054l-116.964,-102.833l-2.115,-22.06Zm0.881,110.231l0,12.116l-14.828,0l0,-1.993l3.267,0c3.056,0 5.648,-0.956 7.774,-2.869c2.126,-1.912 3.189,-4.33 3.189,-7.254l0.598,0Zm26.648,0c0.081,2.924 1.205,5.341 3.373,7.254c2.168,1.912 4.698,2.869 7.59,2.869l3.267,0l0,1.993l-14.707,0l0,-12.116l0.477,0Zm-27.53,-110.231l27.452,29.922l0.078,92.425l-27.246,0l0,-99.731c0,-6.777 -0.359,-12.24 -1.078,-16.389c-0.718,-4.151 -1.078,-6.226 -1.078,-6.226l1.872,0Zm118.718,2.747l0,98.934c0,4.574 0.172,8.62 0.517,12.137c0.347,3.515 0.706,6.241 1.078,8.176c0.374,1.933 0.561,2.9 0.561,2.9l-1.794,0l-27.53,-31.744l-0.121,-90.403l27.29,0Zm-0.48,12.116l0,-12.116l14.832,0l0,1.993l-3.389,0c-2.924,0 -5.462,0.956 -7.615,2.869c-2.153,1.912 -3.269,4.33 -3.348,7.254l-0.48,0Zm-26.81,0c-0.052,-2.924 -1.13,-5.341 -3.233,-7.254c-2.101,-1.912 -4.664,-2.869 -7.687,-2.869l-3.389,0l0,-1.993l14.828,0l0,12.116l-0.52,0Z" style="fill:#d4af37;fill-rule:nonzero;"/><path d="M1763.208,199.179l0,119.599l-28.732,0l0,-119.599l28.732,0Zm46.603,111.604l4.684,7.995l-51.686,0l0,-7.995l47.002,0Zm-6.709,-55.277l0,8.036l-40.293,0l0,-8.036l40.293,0Zm8.929,-56.327l0,7.995l-49.223,0l0,-7.995l49.223,0Zm10.636,82.987l-7.696,36.612l-34.413,0l6.17,-7.995c5.758,0 10.865,-1.165 15.321,-3.495c4.456,-2.33 8.269,-5.632 11.44,-9.907c3.171,-4.277 5.605,-9.349 7.304,-15.215l1.875,0Zm-19.566,-19.024l0,17.535l-2.071,0l0,-1.501c0,-4.439 -1.37,-8.134 -4.111,-11.085c-2.741,-2.953 -6.434,-4.469 -11.078,-4.55l0,-0.399l17.261,0Zm0,-24.652l0,17.414l-17.261,0l0,-0.399c4.645,-0.081 8.338,-1.617 11.078,-4.61c2.741,-2.994 4.111,-6.71 4.111,-11.147l0,-1.258l2.071,0Zm8.929,-31.793l0,21.135l-2.071,0l0,-1.778c0,-5.776 -1.564,-10.347 -4.691,-13.71c-3.125,-3.366 -7.587,-5.089 -13.386,-5.17l0,-0.477l20.148,0Zm0,-10.586l0,4.94l-20.908,-1.872c3.796,0 7.837,-0.365 12.125,-1.096c4.288,-0.731 7.215,-1.388 8.783,-1.972Zm-77.036,110.153l0.897,12.514l-14.679,0l0,-1.993l2.426,0c3,0 5.543,-1.023 7.628,-3.068c2.087,-2.045 3.156,-4.53 3.208,-7.453l0.52,0Zm0,-94.527l-0.52,0c-0.052,-3.056 -1.121,-5.581 -3.208,-7.575c-2.085,-1.993 -4.627,-2.99 -7.628,-2.99l-2.426,0l0,-1.993l14.679,0l-0.897,12.558Zm33.952,-26.346c2.226,-3.864 5.017,-7.835 8.372,-11.913c3.355,-4.08 6.845,-7.932 10.468,-11.555c3.623,-3.623 6.871,-6.724 9.742,-9.303c3.559,1.919 6.412,4.206 8.559,6.861c2.149,2.656 3.835,5.787 5.058,9.394c-3.991,2.477 -8.325,4.894 -13.003,7.251c-4.676,2.357 -9.38,4.452 -14.112,6.285c-4.732,1.833 -9.295,3.292 -13.688,4.376l-1.395,-1.395Z" style="fill:#d4af37;fill-rule:nonzero;"/><path d="M1901.616,199.777l0,119.001l-28.931,0l0,-119.001l28.931,0Zm43.277,-0.797l0,8.039l-115.485,0l0,-8.039l115.485,0Zm0,7.397l0,21.135l-2.071,0l0,-1.856c0.081,-5.695 -1.481,-10.192 -4.687,-13.489c-3.206,-3.299 -7.709,-5.015 -13.508,-5.148l0,-0.642l20.266,0Zm0,-10.465l0,5.061l-20.995,-1.993c2.498,0 5.201,-0.166 8.11,-0.498c2.909,-0.332 5.565,-0.743 7.967,-1.233c2.404,-0.492 4.044,-0.937 4.918,-1.336Zm-71.809,110.352l0,12.514l-13.461,0l0,-1.993l2.155,0c3.023,0 5.564,-1.023 7.621,-3.068c2.058,-2.045 3.153,-4.53 3.286,-7.453l0.399,0Zm27.813,0l0.719,0c-0.029,2.924 1.027,5.418 3.168,7.484c2.141,2.064 4.721,3.096 7.74,3.096l2.077,0l0,1.934l-13.704,0l0,-12.514Zm-51.219,-99.887l0,0.642c-5.801,0.133 -10.285,1.849 -13.452,5.148c-3.164,3.297 -4.747,7.794 -4.747,13.489l0,1.856l-2.071,0l0,-21.135l20.27,0Zm-20.27,-10.465c1.134,0.376 2.864,0.815 5.192,1.317c2.33,0.502 4.924,0.92 7.783,1.252c2.859,0.332 5.532,0.498 8.02,0.498l-20.995,1.993l0,-5.061Z" style="fill:#d4af37;fill-rule:nonzero;"/><path d="M1998.009,199.179l0,119.599l-28.654,0l0,-119.599l28.654,0Zm-28.056,107.085l0,12.514l-14.523,0l0,-1.993l2.426,0c3.075,0 5.747,-1.023 8.017,-3.068c2.269,-2.045 3.43,-4.53 3.482,-7.453l0.598,0Zm27.579,0l0.505,0c0.114,2.924 1.28,5.408 3.498,7.453c2.218,2.045 4.918,3.068 8.101,3.068l2.339,0l0.078,1.993l-14.52,0l0,-12.514Zm0,-94.571l0,-12.514l14.402,0l-0.081,1.993l-2.227,0c-3.181,0 -5.879,0.989 -8.095,2.968c-2.215,1.979 -3.38,4.496 -3.495,7.553l-0.505,0Zm-27.579,0l-0.598,0c-0.052,-3.056 -1.213,-5.574 -3.482,-7.553c-2.269,-1.979 -4.952,-2.968 -8.048,-2.968l-2.395,0l0,-1.993l14.523,0l0,12.514Z" style="fill:#d4af37;fill-rule:nonzero;"/><path d="M2143.293,268.79l2.283,30.09c-2.566,4.267 -6.116,8.085 -10.649,11.455c-4.533,3.37 -10.059,6.044 -16.579,8.023c-6.518,1.979 -14.1,2.968 -22.746,2.968c-14.794,-0.133 -27.586,-2.643 -38.375,-7.531c-10.787,-4.888 -19.08,-11.962 -24.879,-21.223c-5.799,-9.263 -8.699,-20.501 -8.699,-33.715c0,-13.023 2.859,-24.165 8.577,-33.425c5.718,-9.263 13.971,-16.378 24.758,-21.347c10.789,-4.969 23.661,-7.453 38.617,-7.453c9.045,0 17.471,0.862 25.278,2.585c7.807,1.721 14.283,3.904 19.429,6.547l0.149,31.616l-1.551,0c-3.328,-12.226 -8.585,-20.774 -15.769,-25.645c-7.182,-4.871 -15.702,-7.307 -25.558,-7.307c-9.612,0 -17.653,2.252 -24.125,6.755c-6.47,4.504 -11.334,10.814 -14.592,18.93c-3.258,8.114 -4.887,17.575 -4.887,28.383c0,11.023 1.649,20.613 4.946,28.769c3.299,8.156 8.056,14.487 14.271,18.993c6.215,4.504 13.684,6.902 22.409,7.195c9.481,0 17.313,-1.466 23.496,-4.398c6.186,-2.934 11.097,-7.674 14.735,-14.221c3.638,-6.547 6.273,-15.228 7.905,-26.044l1.554,0Z" style="fill:#d4af37;fill-rule:nonzero;"/><path d="M2233.669,196.632c10.592,0 20.216,1.435 28.872,4.304c8.658,2.867 16.117,7.012 22.375,12.433c6.26,5.419 11.058,11.97 14.392,19.653c3.335,7.681 5.002,16.373 5.002,26.078c0,9.624 -1.667,18.257 -5.002,25.898c-3.335,7.641 -8.132,14.172 -14.392,19.594c-6.258,5.419 -13.717,9.564 -22.375,12.433c-8.656,2.867 -18.28,4.301 -28.872,4.301c-10.513,0 -20.085,-1.434 -28.716,-4.301c-8.629,-2.87 -16.074,-7.014 -22.335,-12.433c-6.26,-5.421 -11.058,-11.953 -14.392,-19.594c-3.333,-7.641 -4.999,-16.274 -4.999,-25.898c0,-9.705 1.666,-18.398 4.999,-26.078c3.335,-7.683 8.132,-14.234 14.392,-19.653c6.26,-5.421 13.705,-9.566 22.335,-12.433c8.631,-2.87 18.204,-4.304 28.716,-4.304Zm0,116.899c8.139,0 15.207,-2.21 21.204,-6.631c5.997,-4.421 10.634,-10.702 13.913,-18.843c3.281,-8.141 4.921,-17.793 4.921,-28.956c0,-11.295 -1.64,-21.021 -4.921,-29.177c-3.279,-8.156 -7.916,-14.444 -13.913,-18.865c-5.997,-4.421 -13.065,-6.631 -21.204,-6.631c-8.006,0 -15.008,2.21 -21.005,6.631c-5.997,4.421 -10.655,10.709 -13.975,18.865c-3.32,8.156 -4.98,17.882 -4.98,29.177c0,11.163 1.66,20.815 4.98,28.956c3.32,8.141 7.978,14.422 13.975,18.843c5.997,4.421 12.998,6.631 21.005,6.631Z" style="fill:#d4af37;fill-rule:nonzero;"/></g></g><rect x="0" y="0" width="2446.801" height="499.826" style="fill:none;"/></g></svg>